<svg width="32" height="30" viewBox="0 0 32 30" fill="none" xmlns="http://www.w3.org/2000/svg">
<path fill-rule="evenodd" clip-rule="evenodd" d="M29.9016 17.069H7.15478L16.6635 26.4698C17.4819 27.2793 17.4803 28.589 16.6599 29.3959C16.2502 29.7988 15.714 30 15.1779 30C14.6402 30 14.102 29.7972 13.6923 29.3922L0.612593 16.4612C-0.204198 15.6533 -0.204198 14.3467 0.612593 13.5388L13.6923 0.60776C14.5106 -0.201205 15.8389 -0.202757 16.6599 0.604139C17.4803 1.41104 17.4819 2.72069 16.6635 3.53017L7.15478 12.931H29.9016C31.0605 12.931 32 13.8574 32 15C32 16.1426 31.0605 17.069 29.9016 17.069Z" fill="black"/>
</svg>
