<svg width="24" height="24" viewBox="0 0 24 24" fill="none" xmlns="http://www.w3.org/2000/svg">
<circle cx="12" cy="12" r="12" fill="white"/>
<path fill-rule="evenodd" clip-rule="evenodd" d="M16.803 7.3749C17.245 7.81695 17.245 8.53384 16.803 8.9759L13.601 12.1779L16.6251 15.202C17.0671 15.644 17.0671 16.3609 16.6251 16.803C16.183 17.245 15.4661 17.245 15.0241 16.803L12 13.7789L8.97588 16.803C8.53383 17.245 7.81694 17.245 7.37489 16.803C6.93284 16.3609 6.93284 15.644 7.37489 15.202L10.399 12.1779L7.197 8.9759C6.75495 8.53384 6.75495 7.81695 7.197 7.3749C7.63905 6.93285 8.35594 6.93285 8.798 7.3749L12 10.5769L15.202 7.3749C15.644 6.93285 16.3609 6.93285 16.803 7.3749" fill="black"/>
</svg>
