<svg width="45" height="27" viewBox="0 0 45 27" fill="none" xmlns="http://www.w3.org/2000/svg">
<path d="M0.475488 25.9231L0 23.3905H0.603998L0.92099 25.0859L1.43503 23.3905H2.10757L2.61732 25.0859L2.93432 23.3905H3.53831L3.06283 25.9231H2.31318L1.76916 24.1057L1.22513 25.9273H0.475488V25.9231Z" fill="white"/>
<path d="M5.41906 25.9231L5.07636 26.9496H4.4638L4.78507 25.9231H4.55804L3.74414 23.3905H4.40811L4.99497 25.3131L5.58612 23.3905H6.25009L5.41906 25.9231Z" fill="white"/>
<path d="M6.61377 25.923L6.61377 22.3556L7.2606 22.2672L7.2606 25.923H6.61377ZM8.80701 23.3905L8.0488 24.6441L8.837 25.923H8.12591L7.34628 24.6441L8.08307 23.3905H8.80701Z" fill="white"/>
<path d="M10.2551 25.9776C9.3727 25.9776 9.13281 25.4981 9.13281 24.9806V24.3412C9.13281 23.8195 9.3727 23.3441 10.2551 23.3441C11.1376 23.3441 11.3775 23.8237 11.3775 24.3412V24.9806C11.3775 25.4981 11.1419 25.9776 10.2551 25.9776ZM10.2551 23.8784C9.91244 23.8784 9.77965 24.0298 9.77965 24.3159V24.9974C9.77965 25.2835 9.91244 25.435 10.2551 25.435C10.5978 25.435 10.7306 25.2835 10.7306 24.9974V24.3159C10.7349 24.0298 10.6021 23.8784 10.2551 23.8784Z" fill="white"/>
<path d="M13.5279 25.923V24.1561C13.5279 24.0215 13.4679 23.9542 13.3223 23.9542C13.1638 23.9542 12.8811 24.0467 12.6498 24.1687V25.9272H12.0029V23.3904H12.4956L12.5598 23.605C12.8811 23.4493 13.2923 23.34 13.5922 23.34C14.0205 23.34 14.1748 23.6344 14.1748 24.0888V25.923H13.5279ZM12.6669 22.7678C12.9154 22.6164 13.1681 22.4523 13.438 22.2588L13.6907 22.6416C13.3951 22.8351 13.1767 22.9698 12.8982 23.1212L12.6669 22.7678Z" fill="white"/>
<path d="M14.7744 25.0017V24.3118C14.7744 23.6302 15.0743 23.34 15.8882 23.34C16.0681 23.34 16.3294 23.3694 16.5179 23.4325L16.4365 23.9542C16.2608 23.9079 16.0295 23.8869 15.901 23.8869C15.5283 23.8869 15.4212 23.9962 15.4212 24.3076V25.0101C15.4212 25.3214 15.5326 25.4308 15.901 25.4308C16.0638 25.4308 16.2523 25.4098 16.4365 25.3635L16.5179 25.8852C16.3465 25.944 16.0981 25.9777 15.8882 25.9777C15.0743 25.9777 14.7744 25.6832 14.7744 25.0017Z" fill="white"/>
<path d="M17.0446 23.3905H18.9251V23.8785L17.7771 25.4351H18.9637V25.9231H17.0317V25.4351L18.1798 23.8785H17.0446V23.3905Z" fill="white"/>
<path d="M20.5786 25.456C20.827 25.456 21.0883 25.4181 21.3668 25.3382L21.4653 25.8178C21.174 25.9272 20.8228 25.9776 20.5186 25.9776C19.709 25.9776 19.4263 25.6074 19.4263 25.0016V24.3327C19.4263 23.7985 19.6704 23.3441 20.4972 23.3441C21.3239 23.3441 21.5081 23.8153 21.5081 24.3622V24.9049H20.0731V25.0353C20.0731 25.3382 20.1845 25.456 20.5786 25.456ZM20.0731 24.3916H20.8956V24.2654C20.8956 24.0256 20.8228 23.8616 20.5058 23.8616C20.1888 23.8616 20.0774 24.0298 20.0774 24.2654V24.3916H20.0731Z" fill="white"/>
<path d="M23.6158 25.923V24.1561C23.6158 24.0215 23.5558 23.9542 23.4102 23.9542C23.2517 23.9542 22.969 24.0467 22.7377 24.1687V25.9272H22.0908V23.3904H22.5834L22.6477 23.605C22.969 23.4493 23.3802 23.34 23.6801 23.34C24.1084 23.34 24.2626 23.6344 24.2626 24.0888V25.923H23.6158Z" fill="white"/>
<path d="M24.978 23.0329V22.3009H25.6249V23.0329H24.978ZM24.978 25.9231V23.3905H25.6249V25.9231H24.978Z" fill="white"/>
<path d="M28.2764 25.923H27.7452L27.6981 25.7505C27.4668 25.9019 27.1884 25.9734 26.9313 25.9734C26.4601 25.9734 26.2588 25.6579 26.2588 25.2204C26.2588 24.7072 26.4858 24.5094 27.0127 24.5094H27.6296V24.2444C27.6296 23.9625 27.5482 23.8658 27.1369 23.8658C26.9056 23.8658 26.6486 23.8952 26.4216 23.9457L26.3402 23.4619C26.5844 23.3904 26.9399 23.3441 27.2226 23.3441C28.0322 23.3441 28.2721 23.626 28.2721 24.2612V25.923H28.2764ZM27.6296 24.968H27.1541C26.9442 24.968 26.8842 25.0269 26.8842 25.2162C26.8842 25.3929 26.9442 25.4728 27.1455 25.4728C27.3383 25.4728 27.5096 25.4097 27.6339 25.3424V24.968H27.6296Z" fill="white"/>
<path d="M30.2772 25.9231L29.8018 23.3905H30.4058L30.7227 25.0859L31.2368 23.3905H31.9093L32.4191 25.0859L32.7361 23.3905H33.3401L32.8646 25.9231H32.1192L31.5709 24.1057L31.0269 25.9273H30.2772V25.9231Z" fill="white"/>
<path d="M35.3316 25.923V24.1561C35.3316 24.0215 35.2717 23.9542 35.126 23.9542C34.9675 23.9542 34.6848 24.0467 34.4535 24.1687V25.9272H33.8066V23.3904H34.2993L34.3635 23.605C34.6848 23.4493 35.096 23.34 35.3959 23.34C35.8242 23.34 35.9785 23.6344 35.9785 24.0888V25.923H35.3316Z" fill="white"/>
<path d="M38.3905 26.9284C38.2791 26.9747 38.1806 26.9999 38.0264 26.9999C37.688 26.9999 37.5038 26.8737 37.5038 26.6171C37.5038 26.3605 37.7351 26.1459 38.2063 25.9272C38.0264 25.965 37.8336 25.9776 37.6666 25.9776C36.8569 25.9776 36.5742 25.6074 36.5742 25.0016V24.3327C36.5742 23.7985 36.8184 23.3441 37.6451 23.3441C38.4719 23.3441 38.6561 23.8153 38.6561 24.3622V24.9049H37.2211V25.0353C37.2211 25.3424 37.3324 25.4602 37.7222 25.4602C37.9707 25.4602 38.232 25.4223 38.5104 25.3424L38.609 25.822C38.1292 26.1501 37.9536 26.3268 37.9536 26.5077C37.9536 26.6045 38.0007 26.655 38.1506 26.655C38.2149 26.655 38.2491 26.6508 38.3134 26.6339L38.3905 26.9284ZM37.2211 24.3916H38.0435V24.2654C38.0435 24.0256 37.9707 23.8616 37.6537 23.8616C37.3367 23.8616 37.2253 24.0298 37.2253 24.2654V24.3916H37.2211Z" fill="white"/>
<path d="M40.6093 25.8767C40.4723 25.9356 40.2067 25.9735 40.0439 25.9735C39.5727 25.9735 39.3328 25.7547 39.3328 25.3046V23.8952H38.9473V23.3904H39.3328V22.7594L39.9796 22.671V23.3904H40.6436L40.6008 23.8952H39.9796V25.2204C39.9796 25.355 40.0439 25.4434 40.2109 25.4434C40.3052 25.4434 40.4208 25.4223 40.5322 25.3929L40.6093 25.8767Z" fill="white"/>
<path d="M42.4471 23.9205C42.1986 24.0299 41.9973 24.1435 41.766 24.2907V25.923H41.1191V23.3904H41.6632L41.706 23.6723C41.8474 23.5798 42.1558 23.4031 42.3828 23.34L42.4471 23.9205Z" fill="white"/>
<path d="M42.8195 23.3905H44.7V23.8785L43.552 25.4351H44.7386V25.9231H42.8066V25.4351L43.9547 23.8785H42.8195V23.3905Z" fill="white"/>
<path d="M4.35216 8.03939L4.09942 6.88249L1.09229 6.88249L1.09229 18.8722H4.70342L4.70342 11.5606C5.47877 11.0179 6.85811 10.4037 7.93759 9.98299L7.63774 6.63428C6.65678 6.83621 5.10609 7.54718 4.35216 8.03939Z" fill="white"/>
<path d="M14.3547 6.63855C10.2937 6.63855 9.11572 8.8556 9.11572 11.4386L9.11572 14.2447C9.11572 17.1979 10.6193 19.1205 14.5817 19.1205C16.2866 19.1205 18.0643 18.7503 19.1695 18.359L18.6426 15.7003C17.5631 16.02 16.0596 16.2177 14.933 16.2177C13.2795 16.2177 12.7269 15.8475 12.7269 14.4718V14.1269L19.2937 14.1269V11.6111C19.2895 9.00284 18.4156 6.63855 14.3547 6.63855ZM15.8839 11.4639H12.7226V10.9464C12.7226 10.1093 13.1252 9.41932 14.3761 9.41932C15.6269 9.41932 15.8796 10.1093 15.8796 10.9464V11.4639H15.8839Z" fill="white"/>
<path d="M26.3275 5.72562C26.3275 4.93892 26.4046 4.44671 27.5569 4.44671C27.981 4.44671 28.4094 4.4972 28.9106 4.59395L29.3604 1.81318C28.6578 1.61546 27.8825 1.49346 26.8544 1.49346C23.8987 1.49346 22.7164 2.87333 22.7164 5.33437V6.88672H22.4893L20.6988 5.45217V1.69959L17.9658 1.69959V3.25615L13.9091 0L7.81348 4.42568L9.43699 6.58383L13.8235 3.39919L21.6969 9.71377L21.7054 9.70536L21.7097 9.71798H22.7207L22.7207 18.8764H26.3318L26.3318 9.71377H31.3437L31.3437 18.8722H34.9548V6.88252L26.3275 6.88252V5.72562Z" fill="white"/>
<path d="M34.9505 1.61548L31.3394 1.61548V5.38067H34.9505V1.61548Z" fill="white"/>
<path d="M42.9692 16.2135C42.5195 16.2135 42.2153 16.041 42.2153 15.5488V9.73906H44.7984L44.9997 6.88256L42.2153 6.88256V3.51282L38.6042 4.00503V6.88677H36.9507V9.74326H38.6042V16.0452C38.6042 18.2623 39.9578 19.1205 42.2881 19.1205C43.1149 19.1205 44.0916 18.948 44.8969 18.6788L44.4728 15.9947C43.9502 16.163 43.3719 16.2135 42.9692 16.2135Z" fill="white"/>
</svg>
