<svg width="41" height="40" viewBox="0 0 41 40" fill="none" xmlns="http://www.w3.org/2000/svg">
<path d="M0 17.1728C0 17.5916 0.208993 18.0105 0.417986 18.2199L6.26979 24.0838C6.47878 24.2932 6.89677 24.5026 7.31476 24.5026C7.73274 24.5026 8.15073 24.2932 8.35972 24.0838L10.8676 21.5707C11.4946 20.9424 11.4946 19.8953 10.8676 19.267C11.0766 19.267 10.8676 19.0576 10.8676 18.8482C11.0766 18.8482 11.2856 19.0576 11.4946 19.267C12.1216 19.8953 13.1666 19.8953 13.7935 19.267L14.2115 18.8482L34.6928 39.3717C35.1108 39.7906 35.5288 40 35.9468 40C36.3648 40 36.9918 39.7906 37.2008 39.3717L39.7087 36.8586C40.3357 36.2304 40.3357 34.9738 39.7087 34.1361L19.2274 13.6126L20.2723 12.5654C20.8993 11.9372 20.8993 10.8901 20.2723 10.2618L18.8094 8.79581C20.0633 6.0733 24.2432 4.60733 26.7511 3.56021C28.423 2.93194 29.259 2.72251 29.259 1.88482C29.259 1.46597 29.05 1.04712 28.632 0.837696C27.1691 0.418848 25.7061 0 24.0342 0C17.9734 0 12.1216 4.39791 12.1216 4.39791L11.0766 5.2356L10.4496 4.60733C9.82267 3.97906 8.56871 3.97906 7.73274 4.60733L5.22482 7.12042C5.01583 7.53927 4.80684 7.95812 4.80684 8.58639C4.80684 9.00524 5.01583 9.63351 5.43382 9.84293L5.8518 10.4712L5.64281 10.8901C5.01583 11.5183 5.01583 12.5654 5.43382 13.1937C5.64281 13.4031 5.64281 13.6126 5.8518 13.822C5.64281 13.822 5.43382 13.6126 5.22482 13.4031C4.59785 12.7749 3.55288 12.9843 2.9259 13.4031L0.417986 15.9162C0.208993 16.3351 0 16.7539 0 17.1728ZM9.82267 6.49215L7.10576 9.21466L6.47878 8.58639V8.37696L8.9867 5.86387H9.19569L9.82267 6.49215ZM15.4655 17.5916L18.1824 14.8691L38.6637 35.3927V35.6021L36.1558 38.1152H35.9468L15.4655 17.5916ZM1.88094 17.1728L4.17986 14.8691C5.43382 15.7068 5.8518 15.7068 6.0608 15.7068C6.26979 15.7068 6.68778 15.7068 6.68778 15.4974L7.52375 14.6597C8.15073 14.0314 7.73274 13.4031 6.89677 12.1466L13.3756 5.65445C13.5845 5.44503 18.8094 1.67539 24.0342 1.67539C24.8702 1.67539 25.4971 1.67539 26.1241 1.88482C22.9892 3.14136 18.1824 5.02618 16.9284 8.79581C16.9284 9.00524 16.9284 9.42408 17.1374 9.63351L18.8094 11.3089L12.5396 17.5916C11.2856 16.7539 10.8676 16.7539 10.6586 16.7539C10.4496 16.7539 10.2407 16.9634 10.0317 17.1728L9.19569 18.0105C8.77771 18.4293 8.9867 19.0576 9.82267 20.5236L7.52375 22.8272L1.88094 17.1728Z" fill="black"/>
</svg>
