<svg width="40" height="41" viewBox="0 0 40 41" fill="none" xmlns="http://www.w3.org/2000/svg">
<path d="M38.013 7.32887H35.82V0.977182C35.82 0.488591 35.3326 0 34.8453 0C34.3579 0 33.8706 0.488591 33.8706 0.977182V7.32887H26.5604V0.977182C26.8041 0.488591 26.3167 0 25.5857 0C25.0983 0 24.611 0.488591 24.611 0.977182V7.32887H22.6616C21.4432 7.32887 20.4685 8.30605 20.4685 9.28323V10.2604C20.4685 11.4819 21.4432 12.2148 22.4179 12.2148V16.3678C22.4179 19.7879 25.5857 22.4752 29.4845 22.4752V32.4913C29.4845 35.9114 26.8041 38.5987 23.149 38.5987C19.7375 38.5987 17.0571 35.9114 17.0571 32.247V9.77182C17.0571 5.13021 13.402 1.46577 8.77224 1.46577H8.28489C3.6551 1.46577 0 5.13021 0 9.77182V26.1396C0 26.6282 0.487346 27.1168 0.974693 27.1168C1.46204 27.1168 1.94939 26.6282 1.94939 26.1396V9.77182C1.94939 6.35168 4.87347 3.42014 8.28489 3.42014H8.52856C11.94 3.42014 14.8641 6.35168 14.8641 9.77182V32.247C14.8641 36.8886 18.5192 40.5531 22.9053 40.5531H23.149C28.0224 40.5531 31.4338 37.1329 31.4338 32.4913V22.4752C35.0889 22.2309 38.013 19.5436 38.013 16.3678V12.4591C39.2314 12.4591 39.9624 11.4819 39.9624 10.5047V9.28323C40.2061 8.30605 39.2314 7.32887 38.013 7.32887ZM36.0636 16.3678C36.0636 18.5665 33.8706 20.5208 30.9465 20.5208H29.4845C26.8041 20.5208 24.3673 18.5665 24.3673 16.3678V12.4591H35.82V16.3678H36.0636ZM38.013 10.2604H22.4179V9.28323H38.013V10.2604Z" fill="black"/>
</svg>
