<svg width="42" height="41" viewBox="0 0 42 41" fill="none" xmlns="http://www.w3.org/2000/svg">
<g clip-path="url(#clip0)">
<path d="M12.4444 4.42532L17.8889 7.88862L7 21.1646L0.972221 17.7013L12.4444 4.42532Z" stroke="black" stroke-width="2" stroke-miterlimit="10" stroke-linecap="round" stroke-linejoin="round"/>
<path d="M35.5833 18.2785L41.0278 21.9342L30.1389 35.2102L24.1111 31.7469L35.5833 18.2785Z" stroke="black" stroke-width="2" stroke-miterlimit="10" stroke-linecap="round" stroke-linejoin="round"/>
<path d="M23.5278 0.962036L29.1667 4.42534L18.0833 17.7013L12.25 14.4304L23.5278 0.962036Z" stroke="black" stroke-width="2" stroke-miterlimit="10" stroke-linecap="round" stroke-linejoin="round"/>
<path d="M12.6389 14.4304L18.0833 17.8937L7.19445 31.1697L1.16667 27.8988L12.6389 14.4304Z" stroke="black" stroke-width="2" stroke-miterlimit="10" stroke-linecap="round" stroke-linejoin="round"/>
<path d="M24.3056 10.7747L29.75 14.4304L18.8611 27.7064L12.8333 24.2431L24.3056 10.7747Z" stroke="black" stroke-width="2" stroke-miterlimit="10" stroke-linecap="round" stroke-linejoin="round"/>
<path d="M34.6111 8.85068L40.0556 12.5064L29.1667 25.7824L23.1389 22.3191L34.6111 8.85068Z" stroke="black" stroke-width="2" stroke-miterlimit="10" stroke-linecap="round" stroke-linejoin="round"/>
<path d="M23.5278 22.5114L29.1667 25.9747L18.0833 39.2507L12.25 35.7874L23.5278 22.5114Z" stroke="black" stroke-width="2" stroke-miterlimit="10" stroke-linecap="round" stroke-linejoin="round"/>
</g>
<defs>
<clipPath id="clip0">
<rect width="42" height="40.2128" fill="white"/>
</clipPath>
</defs>
</svg>
