<svg width="40" height="40" viewBox="0 0 40 40" fill="none" xmlns="http://www.w3.org/2000/svg">
<path d="M37.3653 23.9521C36.8862 23.2335 35.9281 23.2335 35.6886 23.9521C35.2096 24.9102 33.0539 28.503 33.0539 29.9401C33.0539 31.8563 34.491 33.2934 36.4072 33.2934C38.3233 33.2934 39.7605 31.8563 39.7605 29.9401C40 28.2635 38.0838 24.9102 37.3653 23.9521ZM36.6467 31.1377C35.9281 31.1377 35.2096 30.4192 35.2096 29.7006C35.2096 29.2216 35.9281 27.7844 36.6467 26.3473C37.3652 27.7844 38.0838 29.2216 38.0838 29.7006C38.0838 30.6587 37.3652 31.1377 36.6467 31.1377Z" fill="black"/>
<path d="M39.521 16.5269C39.7605 16.2874 39.7605 16.0479 39.7605 15.8084C39.7605 15.5689 39.7605 15.3293 39.521 15.0898L24.9102 0.479042C24.6707 0 24.4311 0 24.1916 0C23.9521 0 23.7126 0.239521 23.4731 0.239521L11.018 14.3713C10.5389 14.3713 10.2994 14.6108 10.0599 14.8503L7.66467 17.2455C7.18563 17.7246 7.18563 17.9641 7.18563 18.6826C7.18563 19.1617 7.42515 19.6407 7.66467 19.8802L11.497 23.7126L1.43713 31.3772C-0.479042 33.2934 -0.479042 36.6467 1.43713 38.5629C2.39521 39.521 3.83234 40 5.02994 40C6.22755 40 7.66467 39.521 8.62276 38.5629L16.2874 28.503L20.1198 32.3353C20.3593 32.5748 20.8383 32.8144 21.3174 32.8144C21.7964 32.8144 22.2754 32.5748 22.515 32.3353L24.9102 29.9401C25.1497 29.7006 25.3892 29.2216 25.3892 28.982L39.521 16.5269ZM12.9341 15.3293L19.8802 7.42515C20.3593 8.38323 21.3174 9.1018 22.515 9.1018H22.7545C22.994 9.1018 23.2335 9.1018 23.2335 9.1018V9.34132C23.2335 10.0599 22.2755 11.018 21.5569 11.7365C20.5988 13.1737 18.9222 14.8503 20.3593 16.2874C21.0778 17.006 21.7964 17.2455 22.515 17.485C24.1916 17.485 25.6287 15.8084 27.0659 14.3713C27.7844 13.4132 29.2216 11.976 29.7006 11.976C31.1377 12.2156 31.3772 13.1737 31.8563 14.8503C32.3353 16.2874 32.5749 17.485 34.012 18.2036H34.2515L24.4311 26.8263L12.9341 15.3293ZM24.1916 2.39521L37.3653 15.5689L36.6467 16.0479C36.6467 16.0479 36.6467 16.0479 36.4072 16.0479C35.9281 16.2874 35.2096 16.5269 34.7305 16.2874C34.2515 16.0479 34.012 15.0898 33.7725 14.1317C33.2934 12.4551 32.5749 10.2994 29.9401 9.82036C28.2635 9.58084 26.8263 11.018 25.3892 12.6946C24.4311 13.8922 23.2335 15.3293 22.515 15.3293C22.515 15.3293 22.2754 15.3293 21.7964 14.8503C21.7964 14.6108 22.7545 13.6527 23.2335 13.1737C24.4311 11.976 25.6287 10.7784 25.3892 9.1018C25.3892 8.14371 24.9102 7.42515 24.1916 7.18563C23.4731 6.94611 22.994 6.94611 22.515 7.18563C21.7964 7.18563 21.7964 6.94611 21.7964 6.94611C21.5569 6.46707 21.7964 5.50898 21.7964 5.26946L24.1916 2.39521ZM6.94611 37.3653C5.7485 38.5629 3.83234 38.5629 2.63473 37.3653C1.43713 36.1677 1.43713 34.2515 2.63473 33.0539L12.9341 25.1497L15.0898 27.3054L6.94611 37.3653ZM21.3174 30.6587L9.1018 18.6826L11.2575 16.5269L23.4731 28.7425L21.3174 30.6587Z" fill="black"/>
<path d="M6.94612 32.8144C5.98804 31.8563 4.31139 31.8563 3.35331 32.8144C2.39522 33.7725 2.39522 35.4491 3.35331 36.4072C3.83235 36.8862 4.55091 37.1258 5.02995 37.1258C5.74851 37.1258 6.22756 36.8862 6.7066 36.4072C7.9042 35.4491 7.9042 33.7725 6.94612 32.8144ZM5.50899 34.9701L5.26947 35.2096C5.26947 35.2096 5.02995 35.2096 5.02995 34.9701C4.79043 34.7306 4.79043 34.491 5.02995 34.2515L5.26947 34.012C5.26947 34.012 5.50899 34.012 5.50899 34.2515C5.74851 34.491 5.74851 34.7306 5.50899 34.9701Z" fill="black"/>
</svg>
