<svg width="44" height="43" viewBox="0 0 44 43" fill="none" xmlns="http://www.w3.org/2000/svg">
<path d="M26.9677 4.74674C17.8839 4.74674 12.7742 8.37661 9.93549 11.1688C4.54194 17.0324 4.54194 24.5714 4.54194 26.526V33.5065H1.41936V41.6039H22.1419V33.5065H18.7355V26.2467V25.6883C18.7355 25.6883 18.7355 22.3376 20.4387 20.6623C21.5742 19.2662 23.8452 18.7078 26.9677 18.7078V21.7792H35.2V1.39609H26.9677V4.74674Z" stroke="black" stroke-width="2" stroke-miterlimit="10" stroke-linecap="round" stroke-linejoin="round"/>
<path d="M38.0387 25.1299L34.0645 31.8312C32.9291 33.7857 33.2129 36.0195 34.9162 37.4156C35.7678 37.974 36.9032 38.5325 38.0387 38.5325C39.1742 38.5325 40.3097 38.2533 41.1613 37.4156C42.8645 36.0195 43.1484 33.5065 42.0129 31.8312L38.0387 25.1299Z" stroke="black" stroke-width="2" stroke-miterlimit="10" stroke-linecap="round" stroke-linejoin="round"/>
<path d="M26.9677 18.7078V4.74677" stroke="black" stroke-width="2" stroke-miterlimit="10" stroke-linecap="round" stroke-linejoin="round"/>
<path d="M4.54195 33.5065H18.7355" stroke="black" stroke-width="2" stroke-miterlimit="10" stroke-linecap="round" stroke-linejoin="round"/>
</svg>
