<svg width="50" height="32" viewBox="0 0 50 32" fill="none" xmlns="http://www.w3.org/2000/svg">
<path d="M49.7619 27.814L45.9524 20.2068C45.4762 19.4936 44.7619 19.0181 44.0476 19.0181H43.8095L42.8571 17.1163L48.0952 14.5013C48.8095 14.0259 49.2857 13.5504 49.2857 12.5995C49.2857 11.8863 49.0476 11.1732 48.3333 10.6977L35.2381 0.475453C35 0.237727 34.5238 0 34.0476 0C32.8571 0 31.9048 0.950907 31.9048 2.13954L32.1429 9.27134H30.4762V4.04135C30.4762 3.09045 29.7619 2.37727 28.8095 2.37727H15.9524C15.7143 2.37727 15.4762 2.37727 15.4762 2.37727C15.2381 2.37727 15 2.37727 14.7619 2.37727H1.90476C0.952381 2.37727 0.238095 3.09045 0.238095 4.04135V9.50907C0.238095 10.46 0.952381 11.1732 1.90476 11.1732H7.85714V15.9277H1.66667C0.714286 16.1654 0 16.8786 0 17.5918V23.2972C0 24.2481 0.714286 24.9613 1.66667 24.9613H7.85714V30.1913C7.85714 31.1422 8.57143 31.8554 9.52381 31.8554H22.381C22.619 31.8554 22.8571 31.8554 22.8571 31.8554C23.0952 31.8554 23.0952 31.8554 23.3333 31.8554H36.1905C37.1429 31.8554 37.8571 31.1422 37.8571 30.1913V24.4858C37.8571 23.5349 37.1429 22.8218 36.1905 22.8218H30V18.0672H32.381V18.7804C32.381 19.2559 32.619 19.969 33.0952 20.4445C33.5714 20.9199 34.0476 21.1577 34.7619 21.1577C35 21.1577 35.4762 21.1577 35.7143 20.9199L41.1905 18.0672L42.1429 20.2068C41.9048 20.4445 41.9048 20.6822 41.9048 20.6822C41.6667 21.1577 41.6667 21.8709 42.1429 22.3463L45.9524 29.9536C46.4286 30.6667 47.1429 31.1422 47.8571 31.1422C48.0952 31.1422 48.5714 31.1422 48.8095 30.9045L49.0476 30.6667C50 30.1913 50.4762 29.0027 49.7619 27.814ZM28.3333 9.27134H23.3333H22.381H16.4286V4.51681H28.3333V9.27134ZM2.38095 4.27908H14.2857V9.03361H9.28571H2.38095V4.27908ZM9.7619 11.1732H14.7619H15.7143H21.6667V15.9277H15.4762H14.5238H9.7619V11.1732ZM1.90476 18.0672H9.28571H13.8095V22.8218H9.28571H1.90476V18.0672ZM9.7619 24.9613H14.5238H15.4762H21.6667V29.7158H9.7619V24.9613ZM35.9524 29.7158H24.0476V24.9613H28.5714H35.9524V29.7158ZM28.0952 22.8218H23.3333H22.381H16.1905V18.0672H22.381H23.3333H28.0952V22.8218ZM28.5714 16.1654H23.8095V11.4109H28.8095H32.1429L32.381 16.1654H28.5714ZM34.7619 19.0181H34.5238C34.5238 19.0181 34.5238 19.0181 34.5238 18.7804L34.0476 2.13954C34.0476 1.90181 34.2857 1.90181 34.2857 1.90181L47.381 12.1241C47.381 12.1241 47.381 12.1241 47.381 12.3618V12.5995L42.1429 15.2145L40.4762 12.1241C40.2381 11.6486 39.5238 11.4109 39.0476 11.6486C38.5714 11.8863 38.3333 12.5995 38.5714 13.075L40.2381 16.1654L34.7619 19.0181ZM48.0952 29.0027C47.8571 29.2404 47.619 29.2404 47.619 29.0027L43.8095 21.3954V21.1577L44.0476 20.9199C44.0476 20.9199 44.0476 20.9199 44.2857 20.9199L48.0952 29.0027C48.0952 28.7649 48.0952 29.0027 48.0952 29.0027Z" fill="black"/>
</svg>
