<svg width="903" height="287" viewBox="0 0 903 287" fill="none" xmlns="http://www.w3.org/2000/svg">
<g opacity="0.3">
<g clip-path="url(#clip0)">
<path d="M158.786 78.5113L155.357 71.5338C154.929 70.8797 154.286 70.4436 153.643 70.4436H153.429L152.571 68.6992L157.286 66.3008C157.929 65.8647 158.357 65.4286 158.357 64.5564C158.357 63.9023 158.143 63.2481 157.5 62.812L145.714 53.4361C145.5 53.218 145.071 53 144.643 53C143.571 53 142.714 53.8722 142.714 54.9624L142.929 61.5038H141.429V56.7068C141.429 55.8346 140.786 55.1805 139.929 55.1805H128.357C128.143 55.1805 127.929 55.1805 127.929 55.1805C127.714 55.1805 127.5 55.1805 127.286 55.1805H115.714C114.857 55.1805 114.214 55.8346 114.214 56.7068V61.7218C114.214 62.594 114.857 63.2481 115.714 63.2481H121.071V67.609H115.5C114.643 67.8271 114 68.4812 114 69.1353V74.3684C114 75.2406 114.643 75.8947 115.5 75.8947H121.071V80.6917C121.071 81.5639 121.714 82.218 122.571 82.218H134.143C134.357 82.218 134.571 82.218 134.571 82.218C134.786 82.218 134.786 82.218 135 82.218H146.571C147.429 82.218 148.071 81.5639 148.071 80.6917V75.4586C148.071 74.5865 147.429 73.9323 146.571 73.9323H141V69.5714H143.143V70.2256C143.143 70.6617 143.357 71.3158 143.786 71.7519C144.214 72.188 144.643 72.406 145.286 72.406C145.5 72.406 145.929 72.406 146.143 72.188L151.071 69.5714L151.929 71.5338C151.714 71.7519 151.714 71.9699 151.714 71.9699C151.5 72.406 151.5 73.0602 151.929 73.4962L155.357 80.4737C155.786 81.1278 156.429 81.5639 157.071 81.5639C157.286 81.5639 157.714 81.5639 157.929 81.3459L158.143 81.1278C159 80.6917 159.429 79.6015 158.786 78.5113ZM139.5 61.5038H135H134.143H128.786V57.1429H139.5V61.5038ZM116.143 56.9248H126.857V61.2857H122.357H116.143V56.9248ZM122.786 63.2481H127.286H128.143H133.5V67.609H127.929H127.071H122.786V63.2481ZM115.714 69.5714H122.357H126.429V73.9323H122.357H115.714V69.5714ZM122.786 75.8947H127.071H127.929H133.5V80.2556H122.786V75.8947ZM146.357 80.2556H135.643V75.8947H139.714H146.357V80.2556ZM139.286 73.9323H135H134.143H128.571V69.5714H134.143H135H139.286V73.9323ZM139.714 67.8271H135.429V63.4662H139.929H142.929L143.143 67.8271H139.714ZM145.286 70.4436H145.071C145.071 70.4436 145.071 70.4436 145.071 70.2256L144.643 54.9624C144.643 54.7444 144.857 54.7444 144.857 54.7444L156.643 64.1203C156.643 64.1203 156.643 64.1203 156.643 64.3383V64.5564L151.929 66.9549L150.429 64.1203C150.214 63.6842 149.571 63.4662 149.143 63.6842C148.714 63.9023 148.5 64.5564 148.714 64.9925L150.214 67.8271L145.286 70.4436ZM157.286 79.6015C157.071 79.8195 156.857 79.8195 156.857 79.6015L153.429 72.6241V72.406L153.643 72.188C153.643 72.188 153.643 72.188 153.857 72.188L157.286 79.6015C157.286 79.3835 157.286 79.6015 157.286 79.6015Z" fill="black"/>
</g>
<path d="M379.013 60.3289H376.82V53.9772C376.82 53.4886 376.333 53 375.845 53C375.358 53 374.871 53.4886 374.871 53.9772V60.3289H367.56V53.9772C367.804 53.4886 367.317 53 366.586 53C366.098 53 365.611 53.4886 365.611 53.9772V60.3289H363.662C362.443 60.3289 361.469 61.306 361.469 62.2832V63.2604C361.469 64.4819 362.443 65.2148 363.418 65.2148V69.3678C363.418 72.7879 366.586 75.4752 370.484 75.4752V85.4913C370.484 88.9114 367.804 91.5987 364.149 91.5987C360.738 91.5987 358.057 88.9114 358.057 85.247V62.7718C358.057 58.1302 354.402 54.4658 349.772 54.4658H349.285C344.655 54.4658 341 58.1302 341 62.7718V79.1396C341 79.6282 341.487 80.1168 341.975 80.1168C342.462 80.1168 342.949 79.6282 342.949 79.1396V62.7718C342.949 59.3517 345.873 56.4201 349.285 56.4201H349.529C352.94 56.4201 355.864 59.3517 355.864 62.7718V85.247C355.864 89.8886 359.519 93.5531 363.905 93.5531H364.149C369.022 93.5531 372.434 90.1329 372.434 85.4913V75.4752C376.089 75.2309 379.013 72.5436 379.013 69.3678V65.4591C380.231 65.4591 380.962 64.4819 380.962 63.5047V62.2832C381.206 61.306 380.231 60.3289 379.013 60.3289ZM377.064 69.3678C377.064 71.5665 374.871 73.5208 371.946 73.5208H370.484C367.804 73.5208 365.367 71.5665 365.367 69.3678V65.4591H376.82V69.3678H377.064ZM379.013 63.2604H363.418V62.2832H379.013V63.2604Z" fill="black"/>
<path d="M812.968 57.7466C803.884 57.7466 798.774 61.3765 795.935 64.1687C790.542 70.0324 790.542 77.5713 790.542 79.5259V86.5064H787.419V94.6038H808.142V86.5064H804.735V79.2466V78.6882C804.735 78.6882 804.735 75.3376 806.439 73.6622C807.574 72.2661 809.845 71.7077 812.968 71.7077V74.7791H821.2V54.396H812.968V57.7466Z" stroke="black" stroke-width="2" stroke-miterlimit="10" stroke-linecap="round" stroke-linejoin="round"/>
<path d="M824.039 78.1299L820.065 84.8312C818.929 86.7857 819.213 89.0195 820.916 90.4156C821.768 90.974 822.903 91.5325 824.039 91.5325C825.174 91.5325 826.31 91.2533 827.161 90.4156C828.865 89.0195 829.148 86.5065 828.013 84.8312L824.039 78.1299Z" stroke="black" stroke-width="2" stroke-miterlimit="10" stroke-linecap="round" stroke-linejoin="round"/>
<path d="M812.968 71.7079V57.7468" stroke="black" stroke-width="2" stroke-miterlimit="10" stroke-linecap="round" stroke-linejoin="round"/>
<path d="M790.542 86.5066H804.736" stroke="black" stroke-width="2" stroke-miterlimit="10" stroke-linecap="round" stroke-linejoin="round"/>
<path d="M563 71.1728C563 71.5916 563.209 72.0105 563.418 72.2199L569.27 78.0838C569.479 78.2932 569.897 78.5026 570.315 78.5026C570.733 78.5026 571.151 78.2932 571.36 78.0838L573.868 75.5707C574.495 74.9424 574.495 73.8953 573.868 73.267C574.077 73.267 573.868 73.0576 573.868 72.8482C574.077 72.8482 574.286 73.0576 574.495 73.267C575.122 73.8953 576.167 73.8953 576.794 73.267L577.212 72.8482L597.693 93.3717C598.111 93.7906 598.529 94 598.947 94C599.365 94 599.992 93.7906 600.201 93.3717L602.709 90.8586C603.336 90.2304 603.336 88.9738 602.709 88.1361L582.227 67.6126L583.272 66.5654C583.899 65.9372 583.899 64.8901 583.272 64.2618L581.809 62.7958C583.063 60.0733 587.243 58.6073 589.751 57.5602C591.423 56.9319 592.259 56.7225 592.259 55.8848C592.259 55.466 592.05 55.0471 591.632 54.8377C590.169 54.4188 588.706 54 587.034 54C580.973 54 575.122 58.3979 575.122 58.3979L574.077 59.2356L573.45 58.6073C572.823 57.9791 571.569 57.9791 570.733 58.6073L568.225 61.1204C568.016 61.5393 567.807 61.9581 567.807 62.5864C567.807 63.0052 568.016 63.6335 568.434 63.8429L568.852 64.4712L568.643 64.8901C568.016 65.5183 568.016 66.5654 568.434 67.1937C568.643 67.4031 568.643 67.6126 568.852 67.822C568.643 67.822 568.434 67.6126 568.225 67.4031C567.598 66.7749 566.553 66.9843 565.926 67.4031L563.418 69.9162C563.209 70.3351 563 70.7539 563 71.1728ZM572.823 60.4921L570.106 63.2147L569.479 62.5864V62.377L571.987 59.8639H572.196L572.823 60.4921ZM578.465 71.5916L581.182 68.8691L601.664 89.3927V89.6021L599.156 92.1152H598.947L578.465 71.5916ZM564.881 71.1728L567.18 68.8691C568.434 69.7068 568.852 69.7068 569.061 69.7068C569.27 69.7068 569.688 69.7068 569.688 69.4974L570.524 68.6597C571.151 68.0314 570.733 67.4031 569.897 66.1466L576.376 59.6545C576.585 59.445 581.809 55.6754 587.034 55.6754C587.87 55.6754 588.497 55.6754 589.124 55.8848C585.989 57.1414 581.182 59.0262 579.928 62.7958C579.928 63.0052 579.928 63.4241 580.137 63.6335L581.809 65.3089L575.54 71.5916C574.286 70.7539 573.868 70.7539 573.659 70.7539C573.45 70.7539 573.241 70.9634 573.032 71.1728L572.196 72.0105C571.778 72.4293 571.987 73.0576 572.823 74.5236L570.524 76.8272L564.881 71.1728Z" fill="black"/>
<path d="M45.3653 218.952C44.8863 218.233 43.9282 218.233 43.6887 218.952C43.2096 219.91 41.054 223.503 41.054 224.94C41.054 226.856 42.4911 228.293 44.4073 228.293C46.3234 228.293 47.7605 226.856 47.7605 224.94C48.0001 223.263 46.0839 219.91 45.3653 218.952ZM44.6468 226.138C43.9282 226.138 43.2096 225.419 43.2096 224.701C43.2096 224.221 43.9282 222.784 44.6468 221.347C45.3653 222.784 46.0839 224.221 46.0839 224.701C46.0839 225.659 45.3653 226.138 44.6468 226.138Z" fill="black"/>
<path d="M39.521 211.527C39.7605 211.287 39.7605 211.048 39.7605 210.808C39.7605 210.569 39.7605 210.329 39.521 210.09L24.9102 195.479C24.6707 195 24.4311 195 24.1916 195C23.9521 195 23.7126 195.24 23.4731 195.24L11.018 209.371C10.5389 209.371 10.2994 209.611 10.0599 209.85L7.66467 212.246C7.18563 212.725 7.18563 212.964 7.18563 213.683C7.18563 214.162 7.42515 214.641 7.66467 214.88L11.497 218.713L1.43713 226.377C-0.479042 228.293 -0.479042 231.647 1.43713 233.563C2.39521 234.521 3.83234 235 5.02994 235C6.22755 235 7.66467 234.521 8.62276 233.563L16.2874 223.503L20.1198 227.335C20.3593 227.575 20.8383 227.814 21.3174 227.814C21.7964 227.814 22.2754 227.575 22.515 227.335L24.9102 224.94C25.1497 224.701 25.3892 224.222 25.3892 223.982L39.521 211.527ZM12.9341 210.329L19.8802 202.425C20.3593 203.383 21.3174 204.102 22.515 204.102H22.7545C22.994 204.102 23.2335 204.102 23.2335 204.102V204.341C23.2335 205.06 22.2755 206.018 21.5569 206.737C20.5988 208.174 18.9222 209.85 20.3593 211.287C21.0778 212.006 21.7964 212.246 22.515 212.485C24.1916 212.485 25.6287 210.808 27.0659 209.371C27.7844 208.413 29.2216 206.976 29.7006 206.976C31.1377 207.216 31.3772 208.174 31.8563 209.85C32.3353 211.287 32.5749 212.485 34.012 213.204H34.2515L24.4311 221.826L12.9341 210.329ZM24.1916 197.395L37.3653 210.569L36.6467 211.048C36.6467 211.048 36.6467 211.048 36.4072 211.048C35.9281 211.287 35.2096 211.527 34.7305 211.287C34.2515 211.048 34.012 210.09 33.7725 209.132C33.2934 207.455 32.5749 205.299 29.9401 204.82C28.2635 204.581 26.8263 206.018 25.3892 207.695C24.4311 208.892 23.2335 210.329 22.515 210.329C22.515 210.329 22.2754 210.329 21.7964 209.85C21.7964 209.611 22.7545 208.653 23.2335 208.174C24.4311 206.976 25.6287 205.778 25.3892 204.102C25.3892 203.144 24.9102 202.425 24.1916 202.186C23.4731 201.946 22.994 201.946 22.515 202.186C21.7964 202.186 21.7964 201.946 21.7964 201.946C21.5569 201.467 21.7964 200.509 21.7964 200.269L24.1916 197.395ZM6.94611 232.365C5.7485 233.563 3.83234 233.563 2.63473 232.365C1.43713 231.168 1.43713 229.251 2.63473 228.054L12.9341 220.15L15.0898 222.305L6.94611 232.365ZM21.3174 225.659L9.1018 213.683L11.2575 211.527L23.4731 223.743L21.3174 225.659Z" fill="black"/>
<path d="M14.9461 227.814C13.9881 226.856 12.3114 226.856 11.3533 227.814C10.3952 228.772 10.3952 230.449 11.3533 231.407C11.8324 231.886 12.5509 232.126 13.03 232.126C13.7485 232.126 14.2276 231.886 14.7066 231.407C15.9042 230.449 15.9042 228.772 14.9461 227.814ZM13.509 229.97L13.2695 230.209C13.2695 230.209 13.03 230.209 13.03 229.97C12.7905 229.73 12.7905 229.491 13.03 229.251L13.2695 229.012C13.2695 229.012 13.509 229.012 13.509 229.251C13.7485 229.491 13.7485 229.73 13.509 229.97Z" fill="black"/>
<path d="M261.794 196H237.33V235.835H261.794V196Z" stroke="black" stroke-width="2" stroke-miterlimit="10" stroke-linecap="round" stroke-linejoin="round"/>
<path d="M257.897 217.433H241.443V231.938H257.897V217.433Z" stroke="black" stroke-width="2" stroke-miterlimit="10" stroke-linecap="round" stroke-linejoin="round"/>
<path d="M257.897 200.113H241.443V210.938H257.897V200.113Z" stroke="black" stroke-width="2" stroke-miterlimit="10" stroke-linecap="round" stroke-linejoin="round"/>
<path d="M258.546 214.402H254" stroke="black" stroke-width="2" stroke-miterlimit="10" stroke-linecap="round" stroke-linejoin="round"/>
<path d="M233 235.835H266.34" stroke="black" stroke-width="2" stroke-miterlimit="10" stroke-linecap="round" stroke-linejoin="round"/>
<g clip-path="url(#clip1)">
<path d="M685.472 197.463L690.917 200.927L680.028 214.203L674 210.739L685.472 197.463Z" stroke="black" stroke-width="2" stroke-miterlimit="10" stroke-linecap="round" stroke-linejoin="round"/>
<path d="M708.611 211.316L714.056 214.972L703.167 228.248L697.139 224.785L708.611 211.316Z" stroke="black" stroke-width="2" stroke-miterlimit="10" stroke-linecap="round" stroke-linejoin="round"/>
<path d="M696.556 194L702.195 197.463L691.111 210.739L685.278 207.468L696.556 194Z" stroke="black" stroke-width="2" stroke-miterlimit="10" stroke-linecap="round" stroke-linejoin="round"/>
<path d="M685.667 207.468L691.111 210.932L680.222 224.208L674.195 220.937L685.667 207.468Z" stroke="black" stroke-width="2" stroke-miterlimit="10" stroke-linecap="round" stroke-linejoin="round"/>
<path d="M697.333 203.813L702.778 207.468L691.889 220.744L685.861 217.281L697.333 203.813Z" stroke="black" stroke-width="2" stroke-miterlimit="10" stroke-linecap="round" stroke-linejoin="round"/>
<path d="M707.639 201.889L713.083 205.544L702.195 218.82L696.167 215.357L707.639 201.889Z" stroke="black" stroke-width="2" stroke-miterlimit="10" stroke-linecap="round" stroke-linejoin="round"/>
<path d="M696.556 215.549L702.194 219.013L691.111 232.289L685.278 228.825L696.556 215.549Z" stroke="black" stroke-width="2" stroke-miterlimit="10" stroke-linecap="round" stroke-linejoin="round"/>
</g>
<path d="M439.697 231.444L439 227.786H439.886L440.351 230.235L441.105 227.786H442.091L442.839 230.235L443.304 227.786H444.19L443.492 231.444H442.393L441.595 228.819L440.797 231.45H439.697V231.444Z" fill="black"/>
<path d="M446.948 231.444L446.445 232.927H445.547L446.018 231.444H445.685L444.491 227.786H445.465L446.326 230.563L447.193 227.786H448.166L446.948 231.444Z" fill="black"/>
<path d="M448.701 231.444V226.291L449.649 226.164V231.444H448.701ZM451.917 227.786L450.805 229.597L451.961 231.444H450.918L449.775 229.597L450.856 227.786H451.917Z" fill="black"/>
<path d="M454.041 231.523C452.747 231.523 452.395 230.831 452.395 230.083V229.16C452.395 228.406 452.747 227.719 454.041 227.719C455.335 227.719 455.687 228.412 455.687 229.16V230.083C455.687 230.831 455.341 231.523 454.041 231.523ZM454.041 228.491C453.538 228.491 453.343 228.71 453.343 229.123V230.108C453.343 230.521 453.538 230.74 454.041 230.74C454.543 230.74 454.738 230.521 454.738 230.108V229.123C454.745 228.71 454.55 228.491 454.041 228.491Z" fill="black"/>
<path d="M458.841 231.444V228.892C458.841 228.698 458.753 228.601 458.539 228.601C458.307 228.601 457.892 228.734 457.553 228.91V231.45H456.604V227.786H457.327L457.421 228.096C457.892 227.871 458.495 227.713 458.935 227.713C459.563 227.713 459.789 228.139 459.789 228.795V231.444H458.841ZM457.578 226.887C457.942 226.668 458.313 226.431 458.709 226.152L459.08 226.705C458.646 226.984 458.326 227.179 457.917 227.397L457.578 226.887Z" fill="black"/>
<path d="M460.669 230.114V229.117C460.669 228.133 461.109 227.713 462.303 227.713C462.566 227.713 462.95 227.756 463.226 227.847L463.107 228.601C462.849 228.534 462.51 228.503 462.321 228.503C461.775 228.503 461.618 228.661 461.618 229.111V230.126C461.618 230.575 461.781 230.733 462.321 230.733C462.56 230.733 462.837 230.703 463.107 230.636L463.226 231.39C462.975 231.475 462.61 231.523 462.303 231.523C461.109 231.523 460.669 231.098 460.669 230.114Z" fill="black"/>
<path d="M463.999 227.786H466.757V228.491L465.073 230.739H466.814V231.444H463.98V230.739L465.664 228.491H463.999V227.786Z" fill="black"/>
<path d="M469.182 230.77C469.547 230.77 469.93 230.715 470.338 230.6L470.483 231.293C470.056 231.451 469.54 231.523 469.094 231.523C467.907 231.523 467.492 230.989 467.492 230.114V229.147C467.492 228.376 467.85 227.719 469.063 227.719C470.275 227.719 470.546 228.4 470.546 229.19V229.974H468.441V230.162C468.441 230.6 468.604 230.77 469.182 230.77ZM468.441 229.233H469.647V229.05C469.647 228.704 469.54 228.467 469.075 228.467C468.611 228.467 468.447 228.71 468.447 229.05V229.233H468.441Z" fill="black"/>
<path d="M473.637 231.444V228.892C473.637 228.698 473.549 228.601 473.335 228.601C473.103 228.601 472.688 228.734 472.349 228.91V231.451H471.4V227.786H472.123L472.217 228.096C472.688 227.871 473.291 227.713 473.731 227.713C474.359 227.713 474.585 228.139 474.585 228.795V231.444H473.637Z" fill="black"/>
<path d="M475.635 227.27V226.212H476.583V227.27H475.635ZM475.635 231.444V227.786H476.583V231.444H475.635Z" fill="black"/>
<path d="M480.472 231.444H479.693L479.624 231.195C479.285 231.414 478.876 231.517 478.499 231.517C477.808 231.517 477.513 231.062 477.513 230.43C477.513 229.688 477.846 229.403 478.619 229.403H479.524V229.02C479.524 228.613 479.404 228.473 478.801 228.473C478.462 228.473 478.085 228.516 477.752 228.588L477.632 227.89C477.991 227.786 478.512 227.719 478.927 227.719C480.114 227.719 480.466 228.127 480.466 229.044V231.444H480.472ZM479.524 230.065H478.826C478.518 230.065 478.43 230.15 478.43 230.424C478.43 230.679 478.518 230.794 478.814 230.794C479.096 230.794 479.348 230.703 479.53 230.606V230.065H479.524Z" fill="black"/>
<path d="M483.406 231.444L482.709 227.786H483.595L484.06 230.235L484.814 227.786H485.8L486.548 230.235L487.013 227.786H487.899L487.201 231.444H486.108L485.304 228.819L484.506 231.45H483.406V231.444Z" fill="black"/>
<path d="M490.82 231.444V228.892C490.82 228.698 490.732 228.601 490.518 228.601C490.286 228.601 489.871 228.734 489.532 228.91V231.451H488.583V227.786H489.306L489.4 228.096C489.871 227.871 490.474 227.713 490.914 227.713C491.542 227.713 491.769 228.139 491.769 228.795V231.444H490.82Z" fill="black"/>
<path d="M495.306 232.897C495.142 232.964 494.998 233 494.772 233C494.275 233 494.005 232.818 494.005 232.447C494.005 232.076 494.344 231.767 495.036 231.451C494.772 231.505 494.489 231.523 494.244 231.523C493.057 231.523 492.642 230.989 492.642 230.114V229.147C492.642 228.376 493 227.719 494.213 227.719C495.425 227.719 495.695 228.4 495.695 229.19V229.974H493.591V230.162C493.591 230.606 493.754 230.776 494.326 230.776C494.69 230.776 495.073 230.721 495.482 230.606L495.626 231.299C494.922 231.773 494.665 232.028 494.665 232.289C494.665 232.429 494.734 232.502 494.954 232.502C495.048 232.502 495.098 232.496 495.193 232.471L495.306 232.897ZM493.591 229.233H494.797V229.05C494.797 228.704 494.69 228.467 494.225 228.467C493.76 228.467 493.597 228.71 493.597 229.05V229.233H493.591Z" fill="black"/>
<path d="M498.56 231.377C498.359 231.463 497.97 231.517 497.731 231.517C497.04 231.517 496.688 231.201 496.688 230.551V228.515H496.123V227.786H496.688V226.875L497.637 226.747V227.786H498.611L498.548 228.515H497.637V230.43C497.637 230.624 497.731 230.752 497.976 230.752C498.114 230.752 498.284 230.721 498.447 230.679L498.56 231.377Z" fill="black"/>
<path d="M501.256 228.552C500.891 228.71 500.596 228.874 500.257 229.087V231.444H499.308V227.786H500.106L500.169 228.193C500.376 228.06 500.828 227.805 501.161 227.713L501.256 228.552Z" fill="black"/>
<path d="M501.802 227.786H504.56V228.491L502.876 230.739H504.617V231.444H501.783V230.739L503.467 228.491H501.802V227.786Z" fill="black"/>
<path d="M445.383 205.613L445.013 203.942H440.602V221.26H445.898V210.699C447.036 209.915 449.059 209.028 450.642 208.42L450.202 203.583C448.763 203.875 446.489 204.902 445.383 205.613Z" fill="black"/>
<path d="M460.053 203.589C454.097 203.589 452.37 206.791 452.37 210.522V214.575C452.37 218.841 454.575 221.618 460.386 221.618C462.887 221.618 465.494 221.084 467.115 220.518L466.342 216.678C464.759 217.14 462.554 217.425 460.902 217.425C458.476 217.425 457.666 216.891 457.666 214.904V214.405H467.297V210.771C467.291 207.004 466.009 203.589 460.053 203.589ZM462.296 210.559H457.66V209.811C457.66 208.602 458.25 207.606 460.085 207.606C461.919 207.606 462.29 208.602 462.29 209.811V210.559H462.296Z" fill="black"/>
<path d="M477.614 202.27C477.614 201.134 477.727 200.423 479.417 200.423C480.039 200.423 480.667 200.496 481.402 200.636L482.062 196.619C481.031 196.333 479.894 196.157 478.386 196.157C474.051 196.157 472.317 198.15 472.317 201.705V203.947H471.984L469.358 201.875V196.455H465.35V198.703L459.4 194L450.46 200.393L452.841 203.51L459.274 198.91L470.822 208.031L470.835 208.019L470.841 208.037H472.324V221.266H477.62V208.031H484.971V221.26H490.267V203.941H477.614V202.27Z" fill="black"/>
<path d="M490.261 196.333H484.964V201.772H490.261V196.333Z" fill="black"/>
<path d="M502.022 217.419C501.362 217.419 500.916 217.17 500.916 216.459V208.067H504.705L505 203.941H500.916V199.074L495.62 199.785V203.947H493.195V208.074H495.62V217.176C495.62 220.379 497.605 221.618 501.023 221.618C502.236 221.618 503.668 221.369 504.849 220.98L504.227 217.103C503.461 217.346 502.613 217.419 502.022 217.419Z" fill="black"/>
</g>
<defs>
<clipPath id="clip0">
<rect width="45" height="29" fill="white" transform="translate(114 53)"/>
</clipPath>
<clipPath id="clip1">
<rect width="42" height="40.2128" fill="white" transform="translate(674 194)"/>
</clipPath>
</defs>
</svg>
