<svg width="18" height="19" viewBox="0 0 18 19" fill="none" xmlns="http://www.w3.org/2000/svg">
<path fill-rule="evenodd" clip-rule="evenodd" d="M5.061 12.1099H12.4775C12.9387 12.1099 13.3126 11.7359 13.3126 11.2747C13.3126 10.8135 12.9387 10.4396 12.4775 10.4396H5.061C4.59978 10.4396 4.22583 10.8135 4.22583 11.2747C4.22583 11.7359 4.59978 12.1099 5.061 12.1099ZM8.08077 3.13186H9.45733C9.91855 3.13186 10.2925 2.75791 10.2925 2.29669C10.2925 1.83547 9.91855 1.46153 9.45733 1.46153H8.08077C7.61955 1.46153 7.24561 1.83547 7.24561 2.29669C7.24561 2.75791 7.61955 3.13186 8.08077 3.13186ZM16.7033 1.46153H14.9601C14.4989 1.46153 14.1249 1.83547 14.1249 2.29669C14.1249 2.75791 14.4989 3.13186 14.9601 3.13186H15.8681V17.3297H1.67033V3.13186H2.57815C3.03937 3.13186 3.41332 2.75791 3.41332 2.29669C3.41332 1.83547 3.03937 1.46153 2.57815 1.46153H0.835165C0.373945 1.46153 0 1.91106 0 2.37228V18.1648C0 18.626 0.373945 19 0.835165 19H16.7033C17.1645 19 17.5385 18.626 17.5385 18.1648V2.37228C17.5385 1.91106 17.1645 1.46153 16.7033 1.46153ZM5.061 8.35164H12.4775C12.9387 8.35164 13.3126 7.9777 13.3126 7.51648C13.3126 7.05526 12.9387 6.68131 12.4775 6.68131H5.061C4.59978 6.68131 4.22583 7.05526 4.22583 7.51648C4.22583 7.9777 4.59978 8.35164 5.061 8.35164ZM12.11 4.75835C12.6864 4.75835 13.1539 4.29087 13.1539 3.7144V1.04396C13.1539 0.467484 12.6864 0 12.11 0C11.5335 0 11.066 0.467484 11.066 1.04396V3.7144C11.066 4.29087 11.5335 4.75835 12.11 4.75835ZM4.3847 3.7144V1.04396C4.3847 0.467484 4.85219 0 5.42866 0C6.00513 0 6.47262 0.467484 6.47262 1.04396V3.7144C6.47262 4.29087 6.00513 4.75835 5.42866 4.75835C4.85219 4.75835 4.3847 4.29087 4.3847 3.7144Z" fill="black"/>
</svg>
