<svg width="20" height="20" viewBox="0 0 20 20" fill="none" xmlns="http://www.w3.org/2000/svg">
<path fill-rule="evenodd" clip-rule="evenodd" d="M17.2273 19.1304V10.6334C17.2273 10.1532 16.838 9.76386 16.3578 9.76386C15.8776 9.76386 15.4882 10.1532 15.4882 10.6334V18.2608H12.771V13.6115C12.771 12.9752 12.2534 12.4576 11.6171 12.4576H8.38253C7.74644 12.4576 7.22861 12.9752 7.22861 13.6115V18.2608H4.51186V10.6334C4.51186 10.1532 4.12251 9.76386 3.64229 9.76386C3.16208 9.76386 2.77273 10.1532 2.77273 10.6334V19.1304C2.77273 19.6106 3.16208 20 3.64229 20H8.09818C8.5784 20 8.96775 19.6106 8.96775 19.1304V14.1967H11.0319V19.1304C11.0319 19.6106 11.4212 20 11.9015 20H16.3578C16.838 20 17.2273 19.6106 17.2273 19.1304ZM19.1305 10.6541C18.9115 10.6541 18.6922 10.5719 18.5231 10.4067L10.0002 2.08474L1.47713 10.4067C1.13344 10.7426 0.582782 10.7356 0.247346 10.3922C-0.0880898 10.0485 -0.081568 9.4978 0.262129 9.16237L9.39259 0.247338C9.73042 -0.0824459 10.27 -0.0824459 10.6076 0.247338L19.7381 9.16237C20.0815 9.4978 20.0883 10.0485 19.7526 10.3922C19.5824 10.5665 19.3565 10.6541 19.1305 10.6541Z" fill="black"/>
</svg>
