<svg width="24" height="24" viewBox="0 0 24 24" fill="none" xmlns="http://www.w3.org/2000/svg">
<circle cx="12" cy="12" r="12" fill="white"/>
<path fill-rule="evenodd" clip-rule="evenodd" d="M6.97665 17.1628H8.23246V15.907H6.97665V17.1628ZM9.06977 17.5116C9.06977 17.7814 8.85111 18 8.58139 18H6.48837C6.21865 18 6 17.7814 6 17.5116V15.4186C6 15.1489 6.21865 14.9302 6.48837 14.9302H8.58139C8.85111 14.9302 9.06977 15.1489 9.06977 15.4186V17.5116ZM6.97665 12.5581H8.23246V11.4419H6.97665V12.5581ZM9.06977 13.0465C9.06977 13.3162 8.85111 13.5349 8.58139 13.5349H6.48837C6.21865 13.5349 6 13.3162 6 13.0465V10.9535C6 10.6838 6.21865 10.4651 6.48837 10.4651H8.58139C8.85111 10.4651 9.06977 10.6838 9.06977 10.9535V13.0465ZM9.06977 6.48837C9.06977 6.21865 8.85111 6 8.58139 6H6.48837C6.21865 6 6 6.21865 6 6.48837V8.58139C6 8.85111 6.21865 9.06977 6.48837 9.06977H8.58139C8.85111 9.06977 9.06977 8.85111 9.06977 8.58139V6.48837ZM17.4418 15.7674H11.3323C10.9471 15.7674 10.6346 16.0798 10.6346 16.4651C10.6346 16.8504 10.9471 17.1628 11.3323 17.1628H17.4418C17.8271 17.1628 18.1395 16.8504 18.1395 16.4651C18.1395 16.0798 17.8271 15.7674 17.4418 15.7674ZM17.4418 11.3023H11.3323C10.9471 11.3023 10.6346 11.6147 10.6346 12C10.6346 12.3852 10.9471 12.6977 11.3323 12.6977H17.4418C17.8271 12.6977 18.1395 12.3852 18.1395 12C18.1395 11.6147 17.8271 11.3023 17.4418 11.3023ZM10.6346 7.5349C10.6346 7.14964 10.9471 6.83722 11.3323 6.83722H17.4418C17.8271 6.83722 18.1395 7.14964 18.1395 7.5349C18.1395 7.92015 17.8271 8.23257 17.4418 8.23257H11.3323C10.9471 8.23257 10.6346 7.92015 10.6346 7.5349Z" fill="black"/>
</svg>
