<svg width="210" height="128" viewBox="0 0 210 128" fill="none" xmlns="http://www.w3.org/2000/svg">
<path d="M2.21894 122.894L0 110.888H2.81866L4.29795 118.926L6.69681 110.888H9.83532L12.2142 118.926L13.6935 110.888H16.5121L14.2932 122.894H10.7949L8.25607 114.279L5.71728 122.914H2.21894V122.894Z" fill="black"/>
<path d="M25.288 122.894L23.6887 127.761H20.8301L22.3294 122.894H21.2699L17.4717 110.888H20.5702L23.3089 120.002L26.0676 110.888H29.1661L25.288 122.894Z" fill="black"/>
<path d="M30.8652 122.894V105.982L33.8838 105.563V122.894H30.8652ZM41.1004 110.888L37.562 116.831L41.2403 122.894H37.9219L34.2836 116.831L37.722 110.888H41.1004Z" fill="black"/>
<path d="M47.8571 123.154C43.7391 123.154 42.6196 120.88 42.6196 118.427V115.395C42.6196 112.922 43.7391 110.669 47.8571 110.669C51.9752 110.669 53.0947 112.942 53.0947 115.395V118.427C53.0947 120.88 51.9952 123.154 47.8571 123.154ZM47.8571 113.202C46.2579 113.202 45.6382 113.92 45.6382 115.276V118.507C45.6382 119.863 46.2579 120.581 47.8571 120.581C49.4564 120.581 50.0761 119.863 50.0761 118.507V115.276C50.0961 113.92 49.4764 113.202 47.8571 113.202Z" fill="black"/>
<path d="M63.13 122.894V114.518C63.13 113.88 62.8502 113.561 62.1705 113.561C61.4308 113.561 60.1115 113.999 59.032 114.578V122.914H56.0134V110.888H58.3123L58.6122 111.905C60.1115 111.167 62.0306 110.649 63.4299 110.649C65.4289 110.649 66.1486 112.045 66.1486 114.199V122.894H63.13ZM59.112 107.936C60.2714 107.218 61.4508 106.441 62.7102 105.523L63.8897 107.338C62.5103 108.256 61.4908 108.894 60.1914 109.612L59.112 107.936Z" fill="black"/>
<path d="M68.9473 118.527V115.256C68.9473 112.025 70.3466 110.649 74.1448 110.649C74.9844 110.649 76.2038 110.788 77.0834 111.088L76.7036 113.561C75.884 113.341 74.8045 113.242 74.2048 113.242C72.4656 113.242 71.9658 113.76 71.9658 115.236V118.567C71.9658 120.042 72.4856 120.561 74.2048 120.561C74.9644 120.561 75.844 120.461 76.7036 120.242L77.0834 122.715C76.2838 122.994 75.1243 123.154 74.1448 123.154C70.3466 123.154 68.9473 121.758 68.9473 118.527Z" fill="black"/>
<path d="M79.5421 110.888H88.318V113.202L82.9605 120.581H88.4979V122.894H79.4822V120.581L84.8396 113.202H79.5421V110.888Z" fill="black"/>
<path d="M96.0342 120.681C97.1936 120.681 98.413 120.501 99.7124 120.122L100.172 122.396C98.8129 122.914 97.1736 123.154 95.7543 123.154C91.9761 123.154 90.6567 121.399 90.6567 118.527V115.356C90.6567 112.823 91.7962 110.669 95.6544 110.669C99.5125 110.669 100.372 112.902 100.372 115.495V118.068H93.6753V118.686C93.6753 120.122 94.1951 120.681 96.0342 120.681ZM93.6753 115.635H97.5135V115.036C97.5135 113.9 97.1736 113.122 95.6943 113.122C94.215 113.122 93.6953 113.92 93.6953 115.036V115.635H93.6753Z" fill="black"/>
<path d="M110.207 122.894V114.518C110.207 113.88 109.928 113.561 109.248 113.561C108.508 113.561 107.189 113.999 106.109 114.578V122.914H103.091V110.888H105.39L105.69 111.905C107.189 111.167 109.108 110.649 110.507 110.649C112.506 110.649 113.226 112.045 113.226 114.199V122.894H110.207Z" fill="black"/>
<path d="M116.564 109.193V105.723H119.583V109.193H116.564ZM116.564 122.894V110.888H119.583V122.894H116.564Z" fill="black"/>
<path d="M131.957 122.894H129.478L129.259 122.077C128.179 122.795 126.88 123.134 125.68 123.134C123.481 123.134 122.542 121.638 122.542 119.564C122.542 117.131 123.601 116.193 126.06 116.193H128.939V114.937C128.939 113.601 128.559 113.142 126.64 113.142C125.56 113.142 124.361 113.281 123.301 113.521L122.922 111.227C124.061 110.888 125.72 110.669 127.04 110.669C130.818 110.669 131.937 112.005 131.937 115.017V122.894H131.957ZM128.939 118.367H126.72C125.74 118.367 125.46 118.646 125.46 119.544C125.46 120.381 125.74 120.76 126.68 120.76C127.579 120.76 128.379 120.461 128.959 120.142V118.367H128.939Z" fill="black"/>
<path d="M141.293 122.894L139.074 110.888H141.892L143.372 118.926L145.771 110.888H148.909L151.288 118.926L152.767 110.888H155.586L153.367 122.894H149.889L147.33 114.279L144.791 122.914H141.293V122.894Z" fill="black"/>
<path d="M164.881 122.894V114.518C164.881 113.88 164.602 113.561 163.922 113.561C163.182 113.561 161.863 113.999 160.783 114.578V122.914H157.765V110.888H160.064L160.364 111.905C161.863 111.167 163.782 110.649 165.181 110.649C167.18 110.649 167.9 112.045 167.9 114.199V122.894H164.881Z" fill="black"/>
<path d="M179.155 127.661C178.635 127.88 178.175 128 177.455 128C175.876 128 175.017 127.402 175.017 126.185C175.017 124.969 176.096 123.951 178.295 122.914C177.455 123.094 176.556 123.154 175.776 123.154C171.998 123.154 170.679 121.399 170.679 118.527V115.356C170.679 112.823 171.818 110.669 175.676 110.669C179.534 110.669 180.394 112.902 180.394 115.495V118.068H173.697V118.686C173.697 120.142 174.217 120.701 176.036 120.701C177.196 120.701 178.415 120.521 179.714 120.142L180.174 122.416C177.935 123.971 177.116 124.809 177.116 125.667C177.116 126.125 177.336 126.365 178.035 126.365C178.335 126.365 178.495 126.345 178.795 126.265L179.155 127.661ZM173.697 115.635H177.535V115.036C177.535 113.9 177.196 113.122 175.716 113.122C174.237 113.122 173.717 113.92 173.717 115.036V115.635H173.697Z" fill="black"/>
<path d="M189.51 122.675C188.87 122.954 187.631 123.134 186.871 123.134C184.672 123.134 183.553 122.097 183.553 119.963V113.281H181.753V110.888H183.553V107.897L186.571 107.478V110.888H189.67L189.47 113.281H186.571V119.564C186.571 120.202 186.871 120.621 187.651 120.621C188.09 120.621 188.63 120.521 189.15 120.381L189.51 122.675Z" fill="black"/>
<path d="M198.086 113.401C196.926 113.92 195.987 114.458 194.907 115.156V122.894H191.889V110.888H194.427L194.627 112.224C195.287 111.786 196.726 110.948 197.786 110.649L198.086 113.401Z" fill="black"/>
<path d="M199.825 110.888H208.601V113.202L203.243 120.581H208.781V122.894H199.765V120.581L205.122 113.202H199.825V110.888Z" fill="black"/>
<path d="M20.3104 38.1128L19.131 32.6282H5.09766V89.4684H21.9496V54.8059C25.5679 52.2331 32.0048 49.3213 37.0424 47.3269L35.6431 31.4515C31.0653 32.4088 23.8287 35.7794 20.3104 38.1128Z" fill="black"/>
<path d="M66.9882 31.4715C48.0372 31.4715 42.5398 41.9819 42.5398 54.2275V67.5301C42.5398 81.5307 49.5565 90.6451 68.0477 90.6451C76.0039 90.6451 84.2999 88.89 89.4575 87.0352L86.9986 74.4307C81.961 75.9464 74.9444 76.8838 69.6869 76.8838C61.9705 76.8838 59.3918 75.1287 59.3918 68.6071V66.9716H90.0372V55.0452C90.0172 42.68 85.9391 31.4715 66.9882 31.4715ZM74.1248 54.3472H59.3718V51.8941C59.3718 47.9252 61.2509 44.6544 67.0881 44.6544C72.9253 44.6544 74.1048 47.9252 74.1048 51.8941V54.3472H74.1248Z" fill="black"/>
<path d="M122.862 27.1437C122.862 23.4141 123.221 21.0807 128.599 21.0807C130.578 21.0807 132.577 21.32 134.916 21.7787L137.015 8.59582C133.736 7.65846 130.118 7.08009 125.32 7.08009C111.527 7.08009 106.01 13.6217 106.01 25.2889V32.6482H104.95L96.594 25.8473V8.05734H83.8401V15.4366L64.9091 0L36.4626 20.981L44.039 31.2122L64.5093 16.1147L101.252 46.0505L101.292 46.0106L101.312 46.0704H106.03V89.4883H122.882V46.0505H146.27V89.4684H163.122V32.6282H122.862V27.1437Z" fill="black"/>
<path d="M163.102 7.65847H146.25V25.5083H163.102V7.65847Z" fill="black"/>
<path d="M200.525 76.8638C198.426 76.8638 197.006 76.0461 197.006 73.7127V46.1702H209.061L210 32.6282H197.006V16.6532L180.154 18.9866V32.6482H172.438V46.1901H180.154V76.0661C180.154 86.5765 186.471 90.6451 197.346 90.6451C201.204 90.6451 205.762 89.8274 209.52 88.551L207.541 75.8267C205.102 76.6245 202.404 76.8638 200.525 76.8638Z" fill="black"/>
</svg>
