<svg width="18" height="17" viewBox="0 0 18 17" fill="none" xmlns="http://www.w3.org/2000/svg">
<path fill-rule="evenodd" clip-rule="evenodd" d="M1.97609 15.2609C2.83912 14.3476 4.90344 13.3304 6.62851 12.7292L8.49307 14.315C8.78538 14.5636 9.21483 14.5636 9.50714 14.315L11.3717 12.7292C13.0968 13.3304 15.1611 14.3476 16.0241 15.2609H1.97609ZM11.439 11.1015C11.1815 11.0189 10.9 11.0756 10.6942 11.2508L9 12.6913L7.30604 11.2508C7.10022 11.0756 6.81867 11.0189 6.5612 11.1015C5.46554 11.4509 0 13.3319 0 16.0434C0 16.4756 0.350413 16.8261 0.782609 16.8261H17.2174C17.6496 16.8261 18 16.4756 18 16.0434C18 13.3319 12.5345 11.4509 11.439 11.1015ZM9 1.56526C11.0418 1.56526 12.7029 3.23672 12.7029 5.29146C12.7029 7.34659 11.0418 9.01844 9 9.01844C6.95837 9.01844 5.29728 7.34659 5.29728 5.29146C5.29728 3.23672 6.95837 1.56526 9 1.56526ZM8.99995 10.5836C11.9048 10.5836 14.2681 8.20957 14.2681 5.29141C14.2681 2.37365 11.9048 0 8.99995 0C6.0953 0 3.73202 2.37365 3.73202 5.29141C3.73202 8.20957 6.0953 10.5836 8.99995 10.5836Z" fill="black"/>
</svg>
