<svg width="12" height="12" viewBox="0 0 12 12" fill="none" xmlns="http://www.w3.org/2000/svg">
<path d="M2.47059 5.11765C3.35294 7.05882 4.94118 8.64706 6.88235 9.52941L8.29412 8.11765C8.47059 7.94118 8.82353 7.94118 9 7.94118C9.70588 8.11765 10.5882 8.29412 11.2941 8.29412C11.6471 8.29412 12 8.64706 12 9V11.2941C12 11.6471 11.6471 12 11.2941 12C5.11765 12 0 6.88235 0 0.705882C0 0.352941 0.352941 0 0.705882 0H3C3.35294 0 3.70588 0.352941 3.70588 0.705882C3.70588 1.58824 3.88235 2.29412 4.05882 3C4.05882 3.17647 4.05882 3.52941 3.88235 3.70588L2.47059 5.11765Z" fill="black"/>
</svg>
