<svg width="24" height="24" viewBox="0 0 24 24" fill="none" xmlns="http://www.w3.org/2000/svg">
<circle cx="12" cy="12" r="12" fill="black"/>
<path fill-rule="evenodd" clip-rule="evenodd" d="M18.6666 12.1258C18.6666 12.7509 18.1597 13.2578 17.5345 13.2578H13.0062V17.5346C13.0062 18.1597 12.4993 18.6666 11.8741 18.6666C11.249 18.6666 10.7421 18.1597 10.7421 17.5346V13.2578H6.46533C5.84017 13.2578 5.33325 12.7509 5.33325 12.1258C5.33325 11.5006 5.84017 10.9937 6.46533 10.9937H10.7421V6.46539C10.7421 5.84023 11.249 5.33331 11.8741 5.33331C12.4993 5.33331 13.0062 5.84023 13.0062 6.46539V10.9937H17.5345C18.1597 10.9937 18.6666 11.5006 18.6666 12.1258Z" fill="white"/>
</svg>
