<svg width="20" height="20" viewBox="0 0 20 20" fill="none" xmlns="http://www.w3.org/2000/svg">
<path fill-rule="evenodd" clip-rule="evenodd" d="M18.261 10C18.261 5.445 14.5551 1.73913 10.0001 1.73913C5.44508 1.73913 1.73921 5.445 1.73921 10C1.73921 14.555 5.44508 18.2609 10.0001 18.2609C14.5551 18.2609 18.261 14.555 18.261 10ZM20 10C20 15.5139 15.5139 20 10 20C4.48609 20 0 15.5139 0 10C0 4.48609 4.48609 0 10 0C15.5139 0 20 4.48609 20 10ZM9.94345 13.4826C9.65649 13.4826 9.37823 13.6 9.17388 13.8022C8.97171 14.0043 8.85649 14.2848 8.85649 14.5696C8.85649 14.8565 8.97171 15.137 9.17388 15.3391C9.37823 15.5413 9.65649 15.6587 9.94345 15.6587C10.2304 15.6587 10.5108 15.5413 10.713 15.3391C10.9152 15.137 11.0304 14.8565 11.0304 14.5696C11.0304 14.2848 10.9152 14.0043 10.713 13.8022C10.5108 13.6 10.2304 13.4826 9.94345 13.4826ZM13.2438 5.54239C13.9312 6.31761 14.2562 7.39957 14.1227 8.51109C13.8719 10.5985 12.3453 11.3422 10.9871 11.3422C10.9303 11.3422 10.8695 11.3437 10.8695 11.3459V11.8737C10.8695 12.3539 10.4801 12.7433 9.99991 12.7433C9.51969 12.7433 9.13035 12.3539 9.13035 11.8737V11.173C9.13035 10.4567 9.42904 9.60305 10.9871 9.60305C11.8277 9.60305 12.2782 9.16587 12.3819 8.3037C12.4169 8.01131 12.4438 7.26913 11.9356 6.69652C11.5225 6.23087 10.8523 5.99478 9.94339 5.99478C7.976 5.99478 7.91926 7.26674 7.91926 7.41174C7.91926 7.89196 7.52991 8.28131 7.04969 8.28131C6.56948 8.28131 6.18013 7.89196 6.18013 7.41174C6.18013 6.53392 6.85622 4.25565 9.94339 4.25565C11.7219 4.25565 12.723 4.95544 13.2438 5.54239Z" fill="black"/>
</svg>
