<svg width="33" height="30" viewBox="0 0 33 30" fill="none" xmlns="http://www.w3.org/2000/svg">
<path fill-rule="evenodd" clip-rule="evenodd" d="M2.10129 12.9309L24.8481 12.9309L15.3394 3.53006C14.521 2.72058 14.5226 1.41092 15.3431 0.604026C15.7528 0.201095 16.2889 -0.000111169 16.825 -0.000111169C17.3627 -0.000111169 17.901 0.202647 18.3107 0.607647L31.3903 13.5387C32.2071 14.3466 32.2071 15.6532 31.3903 16.4611L18.3107 29.3921C17.4923 30.2011 16.164 30.2027 15.3431 29.3958C14.5226 28.5889 14.521 27.2792 15.3394 26.4697L24.8481 17.0689L2.10129 17.0689C0.94247 17.0689 0.00292521 16.1425 0.00292521 14.9999C0.00292521 13.8573 0.94247 12.9309 2.10129 12.9309Z" fill="black"/>
</svg>
