<svg width="125" height="75" viewBox="0 0 125 75" fill="none" xmlns="http://www.w3.org/2000/svg">
<path d="M1.3208 72.0087L0 64.9738H1.67777L2.55831 69.6832L3.9862 64.9738H5.85435L7.27035 69.6832L8.15088 64.9738H9.82865L8.50785 72.0087H6.42551L4.91433 66.9604L3.40314 72.0203H1.3208V72.0087Z" fill="black"/>
<path d="M15.0522 72.0087L14.1003 74.86H12.3987L13.2911 72.0087H12.6605L10.3997 64.9738H12.244L13.8742 70.3142L15.5163 64.9738H17.3606L15.0522 72.0087Z" fill="black"/>
<path d="M18.3721 72.0086V62.0989L20.1688 61.8535V72.0086H18.3721ZM24.4644 64.9736L22.3583 68.456L24.5477 72.0086H22.5724L20.4068 68.456L22.4535 64.9736H24.4644Z" fill="black"/>
<path d="M28.4865 72.1603C26.0352 72.1603 25.3689 70.8281 25.3689 69.3908V67.6145C25.3689 66.1655 26.0352 64.845 28.4865 64.845C30.9377 64.845 31.604 66.1772 31.604 67.6145V69.3908C31.604 70.8281 30.9496 72.1603 28.4865 72.1603ZM28.4865 66.3291C27.5345 66.3291 27.1657 66.7498 27.1657 67.5444V69.4375C27.1657 70.2322 27.5345 70.6528 28.4865 70.6528C29.4384 70.6528 29.8073 70.2322 29.8073 69.4375V67.5444C29.8192 66.7498 29.4503 66.3291 28.4865 66.3291Z" fill="black"/>
<path d="M37.5774 72.0085V67.1004C37.5774 66.7265 37.4108 66.5395 37.0062 66.5395C36.566 66.5395 35.7806 66.7966 35.1381 67.1355V72.0202H33.3413V64.9736H34.7097L34.8882 65.5696C35.7806 65.1372 36.9229 64.8333 37.7559 64.8333C38.9458 64.8333 39.3742 65.6514 39.3742 66.9134V72.0085H37.5774ZM35.1857 63.2441C35.8758 62.8234 36.5779 62.3676 37.3275 61.8301L38.0296 62.8935C37.2085 63.431 36.6017 63.805 35.8282 64.2257L35.1857 63.2441Z" fill="black"/>
<path d="M41.0398 69.4492V67.5327C41.0398 65.6396 41.8727 64.8333 44.1336 64.8333C44.6333 64.8333 45.3592 64.9151 45.8827 65.0903L45.6566 66.5394C45.1688 66.4109 44.5262 66.3524 44.1693 66.3524C43.134 66.3524 42.8366 66.6563 42.8366 67.521V69.4726C42.8366 70.3373 43.1459 70.6411 44.1693 70.6411C44.6214 70.6411 45.145 70.5827 45.6566 70.4542L45.8827 71.9032C45.4068 72.0668 44.7166 72.1603 44.1336 72.1603C41.8727 72.1603 41.0398 71.3423 41.0398 69.4492Z" fill="black"/>
<path d="M47.3465 64.9738H52.5702V66.3293L49.3812 70.6531H52.6773V72.0087H47.3108V70.6531L50.4997 66.3293H47.3465V64.9738Z" fill="black"/>
<path d="M57.1633 70.7113C57.8534 70.7113 58.5793 70.6061 59.3527 70.3841L59.6264 71.7163C58.8172 72.0201 57.8415 72.1603 56.9967 72.1603C54.7477 72.1603 53.9624 71.132 53.9624 69.4492V67.5912C53.9624 66.107 54.6407 64.845 56.9372 64.845C59.2337 64.845 59.7454 66.1538 59.7454 67.6729V69.1804H55.7592V69.5427C55.7592 70.3841 56.0685 70.7113 57.1633 70.7113ZM55.7592 67.7547H58.0438V67.4042C58.0438 66.7381 57.8415 66.2823 56.961 66.2823C56.0804 66.2823 55.7711 66.7498 55.7711 67.4042V67.7547H55.7592Z" fill="black"/>
<path d="M65.5996 72.0084V67.1003C65.5996 66.7264 65.433 66.5394 65.0284 66.5394C64.5882 66.5394 63.8028 66.7965 63.1603 67.1354V72.0201H61.3635V64.9735H62.7319L62.9104 65.5695C63.8028 65.1371 64.9451 64.8333 65.7781 64.8333C66.968 64.8333 67.3964 65.6513 67.3964 66.9133V72.0084H65.5996Z" fill="black"/>
<path d="M69.3835 63.9804V61.947H71.1803V63.9804H69.3835ZM69.3835 72.0086V64.9737H71.1803V72.0086H69.3835Z" fill="black"/>
<path d="M78.5457 72.0084H77.0702L76.9393 71.5293C76.2967 71.95 75.5233 72.1486 74.8093 72.1486C73.5004 72.1486 72.9412 71.2722 72.9412 70.0569C72.9412 68.6312 73.5718 68.082 75.0354 68.082H76.7489V67.3457C76.7489 66.5628 76.5228 66.294 75.3805 66.294C74.7379 66.294 74.024 66.3758 73.3933 66.516L73.1672 65.1722C73.8455 64.9735 74.8331 64.845 75.6185 64.845C77.8674 64.845 78.5338 65.6279 78.5338 67.3925V72.0084H78.5457ZM76.7489 69.3557H75.4281C74.845 69.3557 74.6784 69.5193 74.6784 70.0452C74.6784 70.536 74.845 70.758 75.4043 70.758C75.9397 70.758 76.4157 70.5827 76.7608 70.3958V69.3557H76.7489Z" fill="black"/>
<path d="M84.1028 72.0087L82.782 64.9738H84.4598L85.3403 69.6832L86.7682 64.9738H88.6363L90.0523 69.6832L90.9329 64.9738H92.6106L91.2898 72.0087H89.2194L87.6963 66.9604L86.1851 72.0203H84.1028V72.0087Z" fill="black"/>
<path d="M98.144 72.0084V67.1003C98.144 66.7264 97.9774 66.5394 97.5729 66.5394C97.1326 66.5394 96.3473 66.7965 95.7047 67.1354V72.0201H93.908V64.9735H95.2764L95.4548 65.5695C96.3473 65.1371 97.4896 64.8333 98.3225 64.8333C99.5124 64.8333 99.9408 65.6513 99.9408 66.9133V72.0084H98.144Z" fill="black"/>
<path d="M106.64 74.8013C106.33 74.9299 106.057 75 105.628 75C104.688 75 104.177 74.6494 104.177 73.9366C104.177 73.2237 104.819 72.6278 106.128 72.0201C105.628 72.1253 105.093 72.1603 104.629 72.1603C102.38 72.1603 101.594 71.132 101.594 69.4492V67.5912C101.594 66.107 102.273 64.845 104.569 64.845C106.866 64.845 107.377 66.1538 107.377 67.6729V69.1804H103.391V69.5427C103.391 70.3958 103.701 70.723 104.783 70.723C105.474 70.723 106.199 70.6178 106.973 70.3958L107.247 71.7279C105.914 72.6394 105.426 73.1303 105.426 73.6327C105.426 73.9015 105.557 74.0417 105.973 74.0417C106.152 74.0417 106.247 74.0301 106.426 73.9833L106.64 74.8013ZM103.391 67.7547H105.676V67.4042C105.676 66.7381 105.474 66.2823 104.593 66.2823C103.713 66.2823 103.403 66.7498 103.403 67.4042V67.7547H103.391Z" fill="black"/>
<path d="M112.804 71.8799C112.423 72.0435 111.685 72.1486 111.233 72.1486C109.924 72.1486 109.258 71.541 109.258 70.2906V66.3758H108.187V64.9735H109.258V63.2206L111.054 62.9752V64.9735H112.899L112.78 66.3758H111.054V70.0569C111.054 70.4308 111.233 70.6762 111.697 70.6762C111.959 70.6762 112.28 70.6178 112.589 70.536L112.804 71.8799Z" fill="black"/>
<path d="M117.908 66.4459C117.218 66.7497 116.659 67.0653 116.016 67.4743V72.0084H114.219V64.9735H115.73L115.849 65.7564C116.242 65.4993 117.099 65.0085 117.729 64.8333L117.908 66.4459Z" fill="black"/>
<path d="M118.943 64.9738H124.167V66.3293L120.978 70.6531H124.274V72.0087H118.907V70.6531L122.096 66.3293H118.943V64.9738Z" fill="black"/>
<path d="M12.0894 22.3317L11.3873 19.1181H3.03418L3.03418 52.4228H13.0651L13.0651 32.1128C15.2189 30.6053 19.0504 28.8991 22.0489 27.7306L21.216 18.4286C18.4911 18.9895 14.1836 20.9644 12.0894 22.3317Z" fill="black"/>
<path d="M39.8739 18.4404C28.5935 18.4404 25.3213 24.5989 25.3213 31.774V39.5685C25.3213 47.772 29.4979 53.1125 40.5045 53.1125C45.2404 53.1125 50.1785 52.0841 53.2485 50.9973L51.7849 43.6118C48.7863 44.5 44.6097 45.0492 41.4803 45.0492C36.8872 45.0492 35.3522 44.0208 35.3522 40.1996V39.2413H53.5935V32.2531C53.5816 25.0079 51.1542 18.4404 39.8739 18.4404ZM44.1219 31.8441L35.3403 31.8441V30.4068C35.3403 28.0813 36.4588 26.1648 39.9334 26.1648C43.4079 26.1648 44.11 28.0813 44.11 30.4068V31.8441H44.1219Z" fill="black"/>
<path d="M73.1315 15.9045C73.1315 13.7192 73.3457 12.352 76.5465 12.352C77.7246 12.352 78.9145 12.4922 80.3067 12.761L81.5561 5.03662C79.6046 4.48738 77.4509 4.14849 74.5951 4.14849C66.3847 4.14849 63.1006 7.98146 63.1006 14.8177V19.1298H62.4699L57.4961 15.1449V4.7211L49.9045 4.7211V9.04487L38.636 0L21.7036 12.2935L26.2134 18.2884L38.398 9.44219L60.2686 26.9827L60.2924 26.9593L60.3043 26.9944H63.1125V52.4346H73.1434V26.9827L87.0654 26.9827L87.0654 52.4229L97.0963 52.4229L97.0963 19.1181L73.1315 19.1181V15.9045Z" fill="black"/>
<path d="M97.0846 4.48743L87.0537 4.48743V14.9463L97.0846 14.9463V4.48743Z" fill="black"/>
<path d="M119.36 45.0375C118.11 45.0375 117.266 44.5584 117.266 43.1911V27.0529H124.441L125 19.1182L117.266 19.1182V9.75781L107.235 11.1251V19.1299H102.642V27.0646H107.235V44.5701C107.235 50.7285 110.995 53.1124 117.468 53.1124C119.764 53.1124 122.477 52.6333 124.714 51.8854L123.536 44.4298C122.085 44.8973 120.478 45.0375 119.36 45.0375Z" fill="black"/>
</svg>
