<svg width="15" height="15" viewBox="0 0 15 15" fill="none" xmlns="http://www.w3.org/2000/svg">
<path d="M10.1013 8.50633C10.1013 7.97468 10.2785 7.62025 10.2785 7.08861C10.2785 6.55696 10.2785 6.20253 10.1013 5.67089H12.4051C12.5823 6.02532 12.7595 6.55696 12.7595 7.08861C12.7595 7.62025 12.7595 7.97468 12.5823 8.50633H10.1013ZM8.86076 12.4051C9.21519 11.6962 9.56962 10.8101 9.74684 9.92405H11.8734C11.1646 10.9873 10.1013 11.8734 8.86076 12.4051ZM8.68354 8.50633H5.31646C5.31646 7.97468 5.31646 7.44304 5.31646 7.08861C5.31646 6.73418 5.31646 6.02532 5.31646 5.67089H8.68354C8.68354 6.02532 8.86076 6.55696 8.86076 7.08861C8.86076 7.62025 8.68354 7.97468 8.68354 8.50633ZM7.08861 12.5823C6.55696 11.6962 6.02532 10.8101 5.67089 9.74684H8.32911C8.1519 10.8101 7.62025 11.8734 7.08861 12.5823ZM4.25316 4.25316H2.12658C2.83544 3.01266 3.89873 2.12658 5.13924 1.77215C4.78481 2.48101 4.43038 3.36709 4.25316 4.25316ZM2.12658 9.92405H4.25316C4.43038 10.8101 4.78481 11.6962 5.31646 12.4051C3.89873 11.8734 2.83544 10.9873 2.12658 9.92405ZM1.59494 8.50633C1.41772 7.97468 1.41772 7.44304 1.41772 7.08861C1.41772 6.73418 1.41772 6.20253 1.59494 5.67089H3.89873C3.89873 6.20253 3.72152 6.55696 3.72152 7.08861C3.72152 7.62025 3.72152 7.97468 3.89873 8.50633H1.59494ZM7.08861 1.41772C7.62025 2.3038 8.1519 3.18987 8.50633 4.25316H5.67089C6.02532 3.18987 6.37975 2.3038 7.08861 1.41772ZM11.8734 4.25316H9.92405C9.56962 3.36709 9.21519 2.48101 8.86076 1.77215C10.1013 2.12658 11.1646 3.01266 11.8734 4.25316ZM7.08861 0C3.18987 0 0 3.18987 0 7.08861C0 10.9873 3.18987 14.1772 7.08861 14.1772C10.9873 14.1772 14.1772 10.9873 14.1772 7.08861C14.1772 3.18987 10.9873 0 7.08861 0Z" fill="black"/>
</svg>
